<svg version="1" xmlns="http://www.w3.org/2000/svg" width="400" height="400" viewBox="0 0 300.000000 300.000000"><path d="M207.7 40.8c-14.5 43.7-22.9 67.9-40.9 117.7-7.2 19.8-13.5 37.3-14.1 38.9-.9 2.7-1.5 1.5-7.9-16.5C127.1 131.2 107.2 73.4 96.5 41 90 21.5 84.4 5.1 84 4.7c-.5-.5-3.4-.3-6.6.3-4.6 1-7.2 1-12.6 0-3.8-.7-7-1.1-7.2-.9-.2.2-4.5 43.3-9.5 95.7-8.8 91.9-16.3 160.5-19.6 178.9-.8 4.9-1.5 10.8-1.5 13.2 0 4.2.1 4.3 2.8 3.7 6.8-1.5 16.9-1.7 21.9-.3l5.2 1.4.5-5.1c.3-2.8 1-16.6 1.6-30.6 2-46.5 9-145.3 10.3-146.7.5-.5 62.7 179.3 62.7 181.3 0 0 3.1.1 6.9.1h7l18.9-56.6c21.3-63.6 44.3-130.3 44.8-129.8.9.9 9.5 124 11.4 164.2.6 12 1.3 22.1 1.5 22.3.2.2 5.4-.2 11.5-.8 10.5-1.2 20.5-1 33.9.7l5.4.6-.6-7.4c-.3-4.1-2.1-22.9-4.1-41.9-3.4-33.2-12.6-139.3-18.2-209-1.4-18.4-2.8-33.7-3-33.9-.2-.2-3.1.2-6.5.8-6 1.2-13.9.8-18.5-1-2.1-.7-2.7.9-14.7 36.9zM87.4 25l5.2 16.5-11.4.3c-9.3.2-11.9 0-14-1.4-1.3-.9-3.7-2-5.3-2.4l-2.7-.8-1.4 9.1c-2.1 15.2-2.1 6.2.1-15.9C59.1 19 60 9.4 60 9.1c0-.3 5-.6 11-.6h11.1L87.4 25zm158-10.5c.3 3.3 1 13.9 1.6 23.5.5 9.6 1.2 19.4 1.5 21.8.7 4.8.7 4.8 3.8 40.4 1.2 14.8 2.2 26.8 2 26.8-.1 0-.9-1.5-1.7-3.3-3.7-8.6-13.7-17.4-26-22.6-2.4-1.1-6.2-3.5-8.3-5.4-5.2-4.6-7.5-5.7-12.3-5.7-4.7 0-7.3 1.1-11.2 4.8-2.6 2.4-2.4 1.5 4.1-17.4 3.8-10.9 7.7-21.9 8.6-24.4.9-2.5 4.3-13.1 7.6-23.5 3.3-10.5 6.1-19.5 6.3-20 .2-.6 5.1-1 11.9-1h11.5l.6 6zM58.5 69c2.6 2.8 6.8 5 13 6.6 6.8 1.9 9.4 1.8 20.7-.8 6.2-1.4 10.1-1.9 10.7-1.3.5.6 7.5 19.7 15.4 42.5 8 22.8 16.5 47.2 19 54.1l4.4 12.6-3.9 5.9c-6.5 9.7-26.6 31.1-27.9 29.6-.3-.4-5.6-15.1-11.7-32.7s-11.3-32.8-11.7-33.7c-.6-1.5-.3-1.6 3.1-.7 2 .6 7.9.9 13 .7 7.4-.2 9.8-.7 12-2.3 4.4-3.3 4.7-5.8 1.3-10.1-1.6-2-2.9-4.7-2.9-6 0-1.2-1.1-3.2-2.6-4.3-2.5-2-4.5-2.5-21.4-5.7-12.5-2.3-13.1-2.7-16.1-11.4-3.5-10-6.8-10.4-6.9-.8 0 1.9-.5 2.8-1.6 2.8-2.6 0-13.4-7.1-13.4-8.9 0-.9 1-12.4 2.2-25.6C55 61.1 55.6 56.8 56 61.1c.3 3.7 1.2 6.5 2.5 7.9zm133.9 61l4.3 5.5-9.6 27.8-9.6 27.7-.5-5.9c-.3-3.3-1.1-6.6-1.8-7.3-.7-.7-3.5-1.3-6.2-1.3-4.5 0-4.9-.2-4.4-2 .4-1.1 5.2-14.6 10.7-29.9l10.1-27.9 1.3 3.9c.7 2.1 3.3 6.3 5.7 9.4zM58 138.6c4.4.9 5.5 1.5 5.3 3-.1 1-.9 12-1.8 24.4-.8 12.4-2 27.9-2.6 34.5-1.4 17.9-3.6 60.2-3.8 75-.1 7.2-.4 13.7-.6 14.5-.4 1.2-2.7 1.5-12.5 1.5-14 0-12.9 1.4-10-13.7 2.4-13 8-60.4 12-102.8 4-42.5 3.6-40.3 6.3-38.8 1.2.7 4.7 1.7 7.7 2.4zm170.6 12.5c4.3 2.5 11.4 6.5 15.7 8.9 4.2 2.4 9.1 5.5 10.8 6.9l3 2.6 2.5 28c2.3 26.9 7.8 81.7 9 90l.6 4h-45l-.6-10c-2-37.1-5.1-86.3-6.9-111.1l-2.2-29.1 2.6 2.6c1.4 1.4 6.2 4.7 10.5 7.2zm-71 98.9l-14.1 42h-9l-6.7-19.8c-3.8-10.9-6.8-20.4-6.8-21 0-2.2 15.3-22.4 18.3-24.3 1.7-1 7.2-3 12.1-4.6 8.3-2.5 9.6-3.2 14.6-8.4 3-3.2 5.5-5.8 5.6-5.8 0-.1-6.3 18.8-14 41.9z"/></svg>